HIERARCHY
ROOT Hips
{
    OFFSET 0.000000 0.000000 0.000000
    CHANNELS 6 Xposition Yposition Zposition Zrotation Xrotation Yrotation
    JOINT Spine
    {
        OFFSET -0.000000 7.236184 0.000000
        CHANNELS 3 Zrotation Xrotation Yrotation
        JOINT Spine1
        {
            OFFSET -0.000000 20.420147 0.000000
            CHANNELS 3 Zrotation Xrotation Yrotation
            JOINT Neck
            {
                OFFSET -0.000000 20.336288 1.848754
                CHANNELS 3 Zrotation Xrotation Yrotation
                JOINT Head
                {
                    OFFSET -0.000000 12.354461 -1.764923
                    CHANNELS 3 Zrotation Xrotation Yrotation
                    End Site
                    {
                        OFFSET -0.000000 22.061537 0.000000
                    }
                }
            }
            JOINT LeftShoulder
            {
                OFFSET 3.573296 18.396038 -0.314103
                CHANNELS 3 Zrotation Xrotation Yrotation
                JOINT LeftArm
                {
                    OFFSET 10.880760 0.000000 0.000000
                    CHANNELS 3 Zrotation Xrotation Yrotation
                    JOINT LeftForeArm
                    {
                        OFFSET 27.185530 0.000000 0.000000
                        CHANNELS 3 Zrotation Xrotation Yrotation
                        JOINT LeftHand
                        {
                            OFFSET 27.825975 0.000000 0.000000
                            CHANNELS 3 Zrotation Xrotation Yrotation
                            End Site
                            {
                                OFFSET 13.236923 0.000000 0.000000
                            }
                        }
                    }
                }
            }
            JOINT RightShoulder
            {
                OFFSET -3.474926 18.396038 -0.314103
                CHANNELS 3 Zrotation Xrotation Yrotation
                JOINT RightArm
                {
                    OFFSET -10.880760 0.000000 0.000000
                    CHANNELS 3 Zrotation Xrotation Yrotation
                    JOINT RightForeArm
                    {
                        OFFSET -27.185530 0.000000 0.000000
                        CHANNELS 3 Zrotation Xrotation Yrotation
                        JOINT RightHand
                        {
                            OFFSET -27.825975 0.000000 0.000000
                            CHANNELS 3 Zrotation Xrotation Yrotation
                            End Site
                            {
                                OFFSET -13.236923 0.000000 0.000000
                            }
                        }
                    }
                }
            }
        }
    }
    JOINT LeftUpLeg
    {
        OFFSET 8.824615 0.000000 0.000000
        CHANNELS 3 Zrotation Xrotation Yrotation
        JOINT LeftLeg
        {
            OFFSET -0.000000 -35.111282 0.000000
            CHANNELS 3 Zrotation Xrotation Yrotation
            JOINT LeftFoot
            {
                OFFSET -0.000000 -42.324711 0.000000
                CHANNELS 3 Zrotation Xrotation Yrotation
                JOINT LeftToeBase
                {
                    OFFSET -0.000000 -5.735999 13.236923
                    CHANNELS 3 Zrotation Xrotation Yrotation
                    End Site
                    {
                        OFFSET -0.000000 0.000000 3.529846
                    }
                }
            }
        }
    }
    JOINT RightUpLeg
    {
        OFFSET -8.824615 0.000000 0.000000
        CHANNELS 3 Zrotation Xrotation Yrotation
        JOINT RightLeg
        {
            OFFSET -0.000000 -35.111282 0.000000
            CHANNELS 3 Zrotation Xrotation Yrotation
            JOINT RightFoot
            {
                OFFSET -0.000000 -42.324711 0.000000
                CHANNELS 3 Zrotation Xrotation Yrotation
                JOINT RightToeBase
                {
                    OFFSET -0.000000 -5.735999 13.236923
                    CHANNELS 3 Zrotation Xrotation Yrotation
                    End Site
                    {
                        OFFSET -0.000000 0.000000 3.529846
                    }
                }
            }
        }
    }
}
MOTION
Frames:    5
Frame Time:    0.008333
-1.312768    80.927116    95.152184    -0.132965    -4.242763    -175.113281    -1.557046    -14.325700    0.742296    -0.656547    6.442301    0.974973    2.755192    6.262829    -1.479111    4.888650    -1.074734    -1.050879    0.709614    18.160944    -2.934223    -43.458214    47.425816    -40.059364    -2.684817    -4.215483    -17.226662    17.062967    -4.092938    3.529418    6.563047    19.762938    -3.363815    37.298698    47.502953    43.091808    0.553183    -4.447767    16.862471    -15.951676    -3.930003    -4.288480    3.874440    -2.732439    -0.234146    -2.832483    8.025586    -1.224845    -0.490105    -8.501336    -7.090866    -0.106267    0.034486    0.117786    -3.258977    -0.782244    2.141325    3.245196    7.243249    6.309954    -2.837400    -8.921409    -15.154120    -0.523036    0.456905    0.565350    
-1.267611    80.928711    95.166870    -0.144985    -4.253953    -175.076614    -1.553795    -14.314812    0.742228    -0.661618    6.439000    0.974599    2.751698    6.247250    -1.480980    4.860180    -1.070584    -1.057387    0.710967    18.158403    -2.931318    -43.470184    47.386940    -40.054504    -2.719477    -4.195027    -17.213238    17.083185    -4.077442    3.524837    6.563408    19.763094    -3.355919    37.303329    47.500000    43.082462    0.554047    -4.446213    16.860964    -15.944463    -3.928415    -4.291583    3.888334    -2.769971    -0.222178    -2.822348    8.038098    -1.260799    -0.518566    -8.485480    -7.099227    -0.103392    0.038002    0.114599    -3.237719    -0.794456    2.121089    3.241689    7.229679    6.229241    -2.844373    -8.916865    -15.085467    -0.526268    0.459899    0.568842    
-1.222840    80.930298    95.181335    -0.156610    -4.264665    -175.040131    -1.550492    -14.303909    0.742010    -0.666327    6.436136    0.974106    2.748025    6.231719    -1.482691    4.832176    -1.066254    -1.063655    0.711923    18.155890    -2.928414    -43.481167    47.349686    -40.049805    -2.752670    -4.175690    -17.201000    17.104286    -4.062600    3.521829    6.563698    19.763346    -3.348160    37.307838    47.497108    43.073441    0.554753    -4.444744    16.859745    -15.937525    -3.926828    -4.294916    3.902546    -2.806634    -0.210249    -2.812495    8.050286    -1.296756    -0.546380    -8.469724    -7.107395    -0.100668    0.041204    0.111579    -3.216271    -0.806280    2.100734    3.238073    7.216690    6.151841    -2.850481    -8.912673    -15.019624    -0.529348    0.462477    0.572169    
-1.178517    80.931877    95.195427    -0.167606    -4.274567    -175.003830    -1.547041    -14.292722    0.741711    -0.670607    6.433869    0.973370    2.744253    6.215751    -1.484144    4.804762    -1.061149    -1.069597    0.712601    18.153641    -2.925357    -43.490501    47.315048    -40.045929    -2.783347    -4.158099    -17.190496    17.127472    -4.048759    3.521162    6.563994    19.763519    -3.340609    37.312801    47.494331    43.064392    0.555117    -4.443179    16.858885    -15.931164    -3.925071    -4.298389    3.917384    -2.842006    -0.198164    -2.803051    8.062158    -1.333266    -0.573373    -8.454133    -7.115088    -0.098358    0.044081    0.109018    -3.194582    -0.817338    2.080557    3.234684    7.204626    6.082549    -2.860724    -8.908199    -14.962498    -0.532560    0.465625    0.575638    
-1.134676    80.933449    95.209061    -0.177754    -4.283256    -174.967667    -1.543378    -14.281045    0.741127    -0.674282    6.432445    0.972355    2.740176    6.199593    -1.485257    4.778332    -1.055550    -1.075018    0.713003    18.151323    -2.922277    -43.498074    47.284367    -40.042442    -2.810281    -4.143043    -17.182539    17.152945    -4.036388    3.523633    6.564424    19.763874    -3.333304    37.317436    47.491535    43.055916    0.555330    -4.441739    16.858644    -15.925320    -3.923352    -4.302141    3.933233    -2.875487    -0.185964    -2.794259    8.073454    -1.370360    -0.599349    -8.438741    -7.122306    -0.096482    0.046762    0.106939    -3.172281    -0.827326    2.060297    3.231214    7.194168    6.026072    -2.869110    -8.904671    -14.917508    -0.535431    0.467703    0.578740    
